<svg xmlns="http://www.w3.org/2000/svg" viewBox="0 0 124.7 41.7" xml:space="preserve">
  <path d="M79.8 0H0l5.8 5.2 2.2 2 6.4 5.8 2.4 2.1 6.3 5.7 2.4 2.2 5.4 4.9 15 13.7h78.8L79.8 0zm17.4 27.1c-.9-.1-1.7-.5-2.3-1.1-.7-.6-.7-1.1 0-1.1.9.1 1.7.5 2.3 1.1.6.6.7 1.1 0 1.1zm-1.9-4c-.9-.1-1.7-.5-2.4-1.1-.7-.6-.7-1.1 0-1.1.3 0 .5.1.8.2l2 1.9c-.1 0-.2.1-.4.1zm-6.6-3.9c-.9-.1-1.7-.5-2.3-1.1-.7-.6-.7-1.1 0-1.1.9.1 1.7.5 2.4 1.1.6.6.6 1.1-.1 1.1zM87.2 15c-.1.1-.2.2-.4.2-.9-.1-1.7-.5-2.3-1.1-.7-.6-.7-1.1 0-1.1.3 0 .5.1.8.2l1.9 1.8zm-66-5.9c.9.1 1.7.5 2.3 1.1.7.6.7 1.1 0 1.1-.9-.1-1.7-.5-2.3-1.1-.6-.6-.7-1.1 0-1.1zm2 3.9h.1c.9.1 1.7.5 2.3 1.1.7.6.7 1.1 0 1.1h-.1L23.2 13zm6.9 1.1c.7.6.7 1.1 0 1.1-.9-.1-1.7-.5-2.3-1.1-.7-.6-.7-1.1 0-1.1.8.1 1.6.5 2.3 1.1zm-.2-5c.9.1 1.7.5 2.3 1.1.7.6.7 1.1 0 1.1-.9-.1-1.7-.5-2.4-1.1-.5-.6-.5-1.1.1-1.1zm-2 2.2c-.9-.1-1.7-.5-2.3-1.1-.7-.6-.7-1.1 0-1.1.9.1 1.7.5 2.3 1.1.7.6.7 1.1 0 1.1zm1.8 5.7c.9.1 1.7.5 2.3 1.1.7.6.7 1.1 0 1.1-.9-.1-1.7-.5-2.4-1.1-.5-.6-.6-1.1.1-1.1zm2.4-2.9c-.7-.6-.7-1.1 0-1.1.9.1 1.7.5 2.3 1.1.7.6.7 1.1 0 1.1-.8-.1-1.6-.5-2.3-1.1zm6.7 0c.7.6.7 1.1 0 1.1-.9-.1-1.7-.5-2.3-1.1-.7-.6-.7-1.1 0-1.1.8.1 1.6.5 2.3 1.1zm-.2-5c.9.1 1.7.5 2.3 1.1.7.6.7 1.1 0 1.1-.9-.1-1.7-.5-2.4-1.1-.5-.6-.5-1.1.1-1.1zm-2 2.2c-.9-.1-1.7-.5-2.3-1.1-.7-.6-.7-1.1 0-1.1.9.1 1.7.5 2.4 1.1.6.6.6 1.1-.1 1.1zM34 17c.9.1 1.7.5 2.4 1.1.7.6.7 1.1 0 1.1-.9-.1-1.7-.5-2.3-1.1-.7-.6-.7-1.1-.1-1.1zm2.2 3.9c.9.1 1.7.5 2.4 1.1.7.6.7 1.1 0 1.1-.9-.1-1.7-.5-2.3-1.1-.7-.6-.7-1.1-.1-1.1zm2.2-2.8c-.7-.6-.7-1.1 0-1.1.9.1 1.7.5 2.3 1.1.7.6.7 1.1 0 1.1-.8-.1-1.6-.5-2.3-1.1zm2.4-4c-.7-.6-.7-1.1 0-1.1.9.1 1.7.5 2.3 1.1.7.6.7 1.1 0 1.1-.8-.1-1.6-.5-2.3-1.1zm2.2-5c.9.1 1.7.5 2.4 1.1.7.6.7 1.1 0 1.1-.9-.1-1.7-.5-2.3-1.1-.7-.6-.8-1.1-.1-1.1zm-.2 7.9c.9.1 1.7.5 2.3 1.1.7.6.7 1.1 0 1.1-.9-.1-1.7-.5-2.3-1.1-.7-.6-.7-1.1 0-1.1zm2.4-2.9c-.7-.6-.7-1.1 0-1.1.9.1 1.7.5 2.4 1.1.7.6.7 1.1 0 1.1-.9-.1-1.8-.5-2.4-1.1zm2.1-5c.9.1 1.7.5 2.3 1.1.7.6.7 1.1 0 1.1-.9-.1-1.7-.5-2.3-1.1-.6-.6-.6-1.1 0-1.1zm-.2 7.9c.9.1 1.7.5 2.3 1.1.7.6.7 1.1 0 1.1-.9-.1-1.7-.5-2.3-1.1-.6-.6-.6-1.1 0-1.1zm2.5-2.9c-.7-.6-.7-1.1 0-1.1.9.1 1.7.5 2.3 1.1.7.6.7 1.1 0 1.1-.9-.1-1.7-.5-2.3-1.1zm2.1-5c.9.1 1.7.5 2.3 1.1.7.6.7 1.1 0 1.1-.9-.1-1.7-.5-2.3-1.1-.6-.6-.6-1.1 0-1.1zm-.2 7.9c.9.1 1.7.5 2.3 1.1.7.6.7 1.1 0 1.1-.9-.1-1.7-.5-2.4-1.1-.5-.6-.6-1.1.1-1.1zm2.4-2.9c-.7-.6-.7-1.1 0-1.1.9.1 1.7.5 2.3 1.1.7.6.7 1.1 0 1.1-.8-.1-1.6-.5-2.3-1.1zm2.2-5c.9.1 1.7.5 2.3 1.1.7.6.7 1.1 0 1.1-.9-.1-1.7-.5-2.3-1.1-.7-.6-.7-1.1 0-1.1zm-.3 7.9c.9.1 1.7.5 2.4 1.1.7.6.7 1.1 0 1.1-.9-.1-1.7-.5-2.3-1.1-.7-.6-.7-1.1-.1-1.1zm2.5-2.9c-.7-.6-.7-1.1 0-1.1.9.1 1.7.5 2.3 1.1.7.6.7 1.1 0 1.1-.9-.1-1.7-.5-2.3-1.1zM60.4 9c.9.1 1.7.5 2.3 1.1.7.6.7 1.1 0 1.1-.9-.1-1.7-.5-2.4-1.1-.5-.5-.5-1 .1-1.1zm-.2 7.9c.9.1 1.7.5 2.3 1.1.7.6.7 1.1 0 1.1-.9-.1-1.7-.5-2.4-1.1-.5-.5-.5-1 .1-1.1zm2.4-2.8c-.6-.6-.6-1.1 0-1.1.9.1 1.7.5 2.3 1.1.7.6.7 1.1 0 1.1-.8-.1-1.6-.5-2.3-1.1zM64.8 9c.9.1 1.7.5 2.4 1.1.7.6.7 1.1 0 1.1-.9-.1-1.7-.5-2.3-1.1-.8-.5-.8-1-.1-1.1zm-.3 7.9c.9.1 1.7.5 2.4 1.1.7.6.7 1.1 0 1.1-.9-.1-1.7-.5-2.3-1.1-.7-.6-.7-1-.1-1.1zm2.5-2.8c-.7-.6-.7-1.1 0-1.1.9.1 1.7.5 2.4 1.1.7.6.7 1.1 0 1.1-.9-.1-1.8-.5-2.4-1.1zM69.1 9c.9.1 1.7.5 2.3 1.1.7.6.7 1.1 0 1.1-.9-.1-1.7-.5-2.4-1.1-.5-.5-.5-1 .1-1.1zm-.2 7.9c.9.1 1.7.5 2.3 1.1.7.6.7 1.1 0 1.1-.9-.1-1.7-.5-2.3-1.1-.6-.6-.6-1 0-1.1zm2.4-2.8c-.7-.6-.7-1.1 0-1.1.9.1 1.7.5 2.3 1.1.7.6.7 1.1 0 1.1-.8-.1-1.6-.5-2.3-1.1zM73.5 9c.9.1 1.7.5 2.4 1.1.7.6.7 1.1 0 1.1-.9-.1-1.7-.5-2.3-1.1-.7-.6-.8-1.1-.1-1.1zm-.2 7.9c.9.1 1.7.5 2.3 1.1.7.6.7 1.1 0 1.1-.9-.1-1.7-.5-2.3-1.1-.7-.6-.7-1 0-1.1zm2.4-2.8c-.7-.6-.7-1.1 0-1.1.9.1 1.7.5 2.4 1.1.7.6.7 1.1 0 1.1-.9-.1-1.7-.5-2.4-1.1zM77.8 9c.9.1 1.7.5 2.3 1.1.7.6.7 1.1 0 1.1-.9-.1-1.7-.5-2.3-1.1-.6-.6-.6-1.1 0-1.1zm-.2 7.9c.9.1 1.7.5 2.3 1.1.7.6.7 1.1 0 1.1-.9-.1-1.7-.5-2.3-1.1-.6-.6-.6-1 0-1.1zm2.5-2.8c-.7-.6-.7-1.1 0-1.1.9.1 1.7.5 2.3 1.1.7.6.7 1.1 0 1.1-.9-.1-1.7-.5-2.3-1.1zm1.9 2.8c.9.1 1.7.5 2.3 1.1.7.6.7 1.1 0 1.1-.8-.1-1.6-.5-2.3-1.1-.6-.6-.7-1.1 0-1.1zm-3.7-9.6c-.9-.1-1.7-.5-2.3-1.1-.1-.1-.2-.2-.3-.2h1.7l1.3 1.2c-.1.1-.2.1-.4.1zm-4.4-1.1c.7.6.7 1.1 0 1.1-.9-.1-1.7-.5-2.3-1.1l-.2-.2h2.3c0 .1.1.1.2.2zm-4.4 0c.7.6.7 1.1 0 1.1-.9-.1-1.7-.5-2.3-1.1-.1-.1-.1-.2-.2-.2h2.3l.2.2zm-4.3 0c.7.6.7 1.1 0 1.1-.9-.1-1.7-.5-2.3-1.1-.1-.1-.2-.2-.3-.2h2.3c.1 0 .2.1.3.2zm-4.4 0c.7.6.7 1.1 0 1.1-.9-.1-1.7-.5-2.4-1.1 0-.1-.1-.2-.1-.2h2.3l.2.2zm-4.3 0c.7.6.7 1.1 0 1.1-.9-.1-1.7-.5-2.3-1.1-.1-.1-.2-.2-.3-.2h2.3c.1 0 .2.1.3.2zm-4.4 0c.7.6.7 1.1 0 1.1-.9-.1-1.7-.5-2.4-1.1 0-.1-.1-.2-.2-.2h2.3c.1 0 .2.1.3.2zm-4.4 0c.7.6.7 1.1 0 1.1-.9-.1-1.7-.5-2.3-1.1-.1-.1-.1-.2-.2-.2h2.3c.1 0 .1.1.2.2zm-4.3 0c.7.6.7 1.1 0 1.1-.9-.1-1.7-.5-2.3-1.1-.1-.1-.2-.2-.3-.2h2.3c.1 0 .2.1.3.2zm-4.4 0c.7.6.7 1.1 0 1.1-.9-.1-1.7-.5-2.3-1.1l-.2-.2h2.3c0 .1.1.1.2.2zm-4.3 0c.7.6.7 1.1 0 1.1-.9-.1-1.7-.5-2.3-1.1-.1-.1-.2-.2-.3-.2h2.3c.1.1.2.1.3.2zm-4.4 0c.7.6.7 1.1 0 1.1-.9-.1-1.7-.5-2.4-1.1l-.2-.2H30c.1.1.2.1.3.2zm-4.4 0c.7.6.7 1.1 0 1.1-.9-.1-1.7-.5-2.3-1.1l-.2-.2h2.2c.1 0 .2.1.3.2zm-4.3 0c.7.6.7 1.1 0 1.1-.9-.1-1.7-.5-2.4-1.1 0-.1-.1-.1-.2-.2h2.2c.2 0 .3.1.4.2zm-4.4 0c.7.6.7 1.1 0 1.1h-.3L15.5 6h1.4c.1 0 .2.1.3.2zm14.7 14.7c.9.1 1.7.5 2.3 1.1.6.6.7 1.1.1 1.1l-2.4-2.2zm6.3 3.9c.9.1 1.7.5 2.3 1.1.7.6.7 1.1 0 1.1-.9-.1-1.7-.5-2.3-1.1-.6-.5-.7-1 0-1.1zm2.4-2.8c-.7-.6-.7-1.1 0-1.1.9.1 1.7.5 2.3 1.1.7.6.7 1.1 0 1.1-.8-.1-1.6-.5-2.3-1.1zm1.9 2.8c.9.1 1.7.5 2.3 1.1.7.6.7 1.1 0 1.1-.8 0-1.6-.4-2.2-1-.7-.6-.7-1.1-.1-1.2zM45 22c-.7-.6-.7-1.1 0-1.1.9.1 1.7.5 2.3 1.1.7.6.7 1.1 0 1.1-.9-.1-1.7-.5-2.3-1.1zm1.9 2.8c.9.1 1.7.5 2.4 1.1.7.6.7 1.1 0 1.1-.9-.1-1.7-.5-2.3-1.1-.7-.5-.7-1-.1-1.1zm2.4-2.8c-.7-.6-.7-1.1 0-1.1.9.1 1.7.5 2.3 1.1.7.6.7 1.1 0 1.1-.8-.1-1.6-.5-2.3-1.1zm2 2.8c.9.1 1.7.5 2.3 1.1.7.6.7 1.1 0 1.1-.9-.1-1.7-.5-2.4-1.1-.6-.5-.6-1 .1-1.1zm2.4-2.8c-.7-.6-.7-1.1 0-1.1.9.1 1.7.5 2.3 1.1.7.6.7 1.1 0 1.1-.8-.1-1.7-.5-2.3-1.1zm1.9 2.8c.9.1 1.7.5 2.4 1.1.7.6.7 1.1 0 1.1-.9-.1-1.7-.5-2.3-1.1-.7-.5-.7-1-.1-1.1zM58 22c-.7-.6-.7-1.1 0-1.1.9.1 1.7.5 2.4 1.1.7.6.7 1.1 0 1.1-.9-.1-1.7-.5-2.4-1.1zm2 2.8c.9.1 1.7.5 2.3 1.1.7.6.7 1.1 0 1.1-.9-.1-1.7-.5-2.3-1.1-.7-.5-.7-1 0-1.1zm2.4-2.8c-.7-.6-.7-1.1 0-1.1.9.1 1.7.5 2.3 1.1.7.6.7 1.1 0 1.1-.8-.1-1.6-.5-2.3-1.1zm1.9 2.8c.9.1 1.7.5 2.3 1.1.7.6.7 1.1 0 1.1-.9-.1-1.7-.5-2.3-1.1-.6-.5-.6-1 0-1.1zm2.5-2.8c-.7-.6-.7-1.1 0-1.1.9.1 1.7.5 2.4 1.1.7.6.7 1.1 0 1.1-1-.1-1.8-.5-2.4-1.1zm1.9 2.8c.9.1 1.7.5 2.3 1.1.7.6.7 1.1 0 1.1-.9-.1-1.7-.5-2.3-1.1-.6-.5-.7-1 0-1.1zm2.4-2.8c-.7-.6-.7-1.1 0-1.1.9.1 1.7.5 2.3 1.1.7.6.7 1.1 0 1.1-.8-.1-1.6-.5-2.3-1.1zm1.9 2.8c.9.1 1.7.5 2.3 1.1.7.6.7 1.1 0 1.1-.9-.1-1.7-.5-2.4-1.1-.5-.6-.5-1.1.1-1.1zm2.5-2.8c-.7-.6-.7-1.1 0-1.1.9.1 1.7.5 2.3 1.1.7.6.7 1.1 0 1.1-.8-.1-1.7-.5-2.3-1.1zm1.9 2.8c.9.1 1.7.5 2.4 1.1.7.6.7 1.1 0 1.1-.9-.1-1.7-.5-2.3-1.1-.7-.6-.7-1.1-.1-1.1zm2.4-2.8c-.7-.6-.7-1.1 0-1.1.9.1 1.7.5 2.3 1.1.7.6.7 1.1 0 1.1-.8-.1-1.6-.5-2.3-1.1zm2 2.8c.9.1 1.7.5 2.3 1.1.7.6.7 1.1 0 1.1-.9-.1-1.7-.5-2.4-1.1-.6-.6-.6-1.1.1-1.1zm2.4-2.8c-.7-.6-.7-1.1 0-1.1.9.1 1.7.5 2.3 1.1.7.6.7 1.1 0 1.1-.8-.1-1.6-.5-2.3-1.1zm1.9 2.8c.9.1 1.7.5 2.4 1.1.7.6.7 1.1 0 1.1-.9-.1-1.7-.5-2.3-1.1-.7-.6-.7-1.1-.1-1.1zm2.5-2.8c-.7-.6-.7-1.1 0-1.1.9.1 1.7.5 2.4 1.1.7.6.7 1.1 0 1.1-1-.1-1.8-.5-2.4-1.1zm1.9 2.8c.9.1 1.7.5 2.3 1.1.7.6.7 1.1 0 1.1-.9-.1-1.7-.5-2.3-1.1-.6-.6-.7-1.1 0-1.1zM39.7 28l61.3-.2 8.5 7.9H48.2L39.7 28z" fill="#161514"/>
</svg>