<svg xmlns="http://www.w3.org/2000/svg" viewBox="0 0 115 24.8" xml:space="preserve">
  <path d="M115.045 24.842h-115l2.9-3.9s4.5-6.1 7.5-10.2c1.6-2.1 4.8-2.1 7.8-2.1 1.2 0 2.4 0 3.6-.1 1.9-.3 4.4-1.6 7.2-3 4.9-2.5 11.1-5.7 17.7-5.5 4 .1 9.6 2.2 15.4 4.3 4 1.6 8.1 2.9 12.2 4 11.7 2.7 16.6 2.5 20.6 2.2 2.3-.2 4.6-.1 6.8.2 3.5.5 10.7 3.5 12.6 11l.7 3.1zm-105.3-4.9h98.4c-1.8-2.2-4.3-3.7-7.1-4.3-1.9-.3-3.9-.3-5.8-.1-4.3.2-9.6.5-21.9-2.4-4.3-1.1-8.6-2.5-12.8-4.2-5.2-1.9-10.6-3.9-13.9-4-5.3-.1-10.6 2.5-15.3 4.9-3.2 1.6-5.9 3-8.5 3.5-1.5.2-3 .3-4.5.2-1.3-.1-2.6 0-3.9.2-1.6 2-3.3 4.3-4.7 6.2z" fill="#161514"/>
</svg>