<svg xmlns="http://www.w3.org/2000/svg" viewBox="0 0 73.1 70.2" xml:space="preserve">
  <g fill="#161514">
    <path d="M32.993 57.633h27.6l-12.3-12.3-2.1-2.1-1.1-1.1-11.9-11.9v-13.2h5l-18.5-17-19.6 16.8h4.6v12.8l1 .8 14.8 14.4 12.5 12.8zm19.9-3.2h-18.5l-9.1-9.2h18.5l9.1 9.2zm-30.8-12.3-9.1-8.9h18.7l8.9 8.9h-18.5zM69.993 67.133h-4.5l3.1 3.1h4.5l-3.1-3.1zM65.893 62.933h-4.5l3.1 3.1h4.5l-3.1-3.1zM61.693 58.833h-4.5l3.1 3.1h4.5l-3.1-3.1zM42.293 67.133l3.1 3.1h4.5l-3.1-3.1h-4.5zM38.493 58.833h-4.5l3.1 3.1h4.5l-3.1-3.1zM42.693 62.933h-4.5l3.1 3.1h4.5l-3.1-3.1z"/>
  </g>
</svg>