<svg xmlns="http://www.w3.org/2000/svg" viewBox="0 0 115 45.2" xml:space="preserve">
  <path d="M114.6 42.4c-.6-4.3-2.3-6.2-13.2-14.4-7.9-6-12.8-10.4-16.8-14-1.7-1.5-3.2-2.9-4.8-4.2-.8-.7-1.5-1.4-2.3-2.1C73.7 4.1 69.4.1 60.1 0 52-.1 48.9 3.3 46 6.6c-1.4 1.8-3.1 3.3-5 4.5-3.9 1.9-8.1 3-12.4 3.4-2.4.1-4.7 1.1-6.5 2.6l-.6.7c-4.3 4.9-7.7 8.7-8.4 9.6-.9 1.2-9.8 13.4-10.2 13.9L0 45.2h115l-.4-2.8zM101.4 35c.5.1 1 .2 1.5.4 2 1.5 3.9 3.1 5.6 5H9.7c1.7-2.4 3.9-5.3 5.4-7.4 1-.1 2.3-.1 3.1-.1 1.5.1 2.9 0 4.4-.2 2.4-.4 5.1-1.8 8.3-3.4 4.8-2.5 10.2-5.2 15.8-5.1 3.4.1 8.6 2.1 14.2 4.1 4.1 1.7 8.4 3.1 12.7 4.2 12.2 2.9 17.5 2.6 21.7 2.4 2-.3 4.1-.2 6.1.1zM25.1 21.1l.6-.6c1-.6 2.1-1 3.2-1.1C34 19 39 17.6 43.5 15.3c2.3-1.5 4.4-3.3 6.2-5.4 2.6-2.9 4.4-5 10.2-5h.1c7.4.1 10.5 2.9 14.1 6.3.8.7 1.6 1.5 2.5 2.3 1.5 1.3 3 2.6 4.7 4.1 4 3.6 9 8.1 16.9 14.1-1 0-2 0-3 .1-4 .2-9.1.5-20.9-2.3-4.2-1.1-8.3-2.5-12.4-4.1-5.8-2.2-11.3-4.2-15.2-4.3-6.3-.2-12.4 2.9-17.2 5.4-2.8 1.4-5.4 2.8-7.5 3.2-1.3.2-2.5.2-3.8.2h-.9c1.4-1.5 5.2-5.8 7.8-8.8z" fill="#161514"/>
</svg>