<svg xmlns="http://www.w3.org/2000/svg" xmlns:xlink="http://www.w3.org/1999/xlink" viewBox="0 0 1600 559.3" xml:space="preserve">
  <path d="M0-.5h1600v560H0V-.5z" opacity=".997"/>
  <defs>
    <path id="a" d="M0-.5h1600v560H0z"/>
  </defs>
  <clipPath id="b">
    <use xlink:href="#a" overflow="visible"/>
  </clipPath>
  <g fill="none" stroke="#595b60" stroke-miterlimit="10" clip-path="url(#b)">
    <path d="M0-467.05h1600M0-423.15c5.2 0 314.8 8.4 320 8.4s314.9-8.4 320-8.4 314.8 8.4 320 8.4 314.8-8.4 320-8.4 314.8 8.4 320 8.4M0-379.35c10.3 0 309.7 16.7 320 16.7s309.7-16.7 320-16.7 309.7 16.8 320 16.8 309.7-16.7 320-16.7 309.7 16.7 320 16.7M0-335.45c15.5 0 304.5 25.1 320 25.1s304.5-25.1 320-25.1 304.5 25.1 320 25.1 304.5-25.1 320-25.1 304.5 25.1 320 25.1M0-291.65c20.6 0 299.3 33.5 320 33.5s299.4-33.5 320-33.5 299.3 33.5 320 33.5 299.4-33.5 320-33.5 299.4 33.5 320 33.5M0-247.75c25.8 0 294.2 41.9 320 41.9s294.2-41.9 320-41.9 294.2 41.9 320 41.9 294.2-41.9 320-41.9 294.2 41.9 320 41.9M0-203.95c31 0 289 50.2 320 50.2s289.1-50.2 320-50.2 289 50.2 320 50.2 289-50.2 320-50.2 289 50.2 320 50.2"/>
    <path d="M0-160.05c36.1 0 283.8 58.6 320 58.6s283.9-58.6 320-58.6 283.9 58.6 320 58.6 283.9-58.6 320-58.6 283.9 58.6 320 58.6"/>
    <path d="M0-116.25c41.3 0 278.7 67 320 67s278.7-67 320-67 278.7 67 320 67 278.7-67 320-67 278.7 67 320 67"/>
    <path d="M0-72.35c46.5 0 273.5 75.3 320 75.3s273.6-75.3 320-75.3 273.5 75.3 320 75.3 273.6-75.3 320-75.3 273.6 75.3 320 75.3"/>
    <path d="M0-28.55c51.6 0 268.4 83.7 320 83.7s268.4-83.7 320-83.7 268.4 83.7 320 83.7 268.4-83.7 320-83.7 268.4 83.7 320 83.7"/>
    <path d="M0 15.35c56.8 0 263.2 92.1 320 92.1s263.2-92.1 320-92.1 263.2 92.1 320 92.1 263.2-92.1 320-92.1 263.2 92.1 320 92.1"/>
    <path d="M0 59.15c61.9 0 258 100.5 320 100.5s258.1-100.5 320-100.5 258 100.5 320 100.5 258.1-100.5 320-100.5 258.1 100.5 320 100.5"/>
    <path d="M0 103.05c67.1 0 252.9 108.8 320 108.8s252.9-108.8 320-108.8 252.9 108.8 320 108.8 252.9-108.8 320-108.8 252.9 108.8 320 108.8"/>
    <path d="M0 146.85c72.3 0 247.7 117.2 320 117.2s247.8-117.2 320-117.2 247.7 117.2 320 117.2 247.7-117.2 320-117.2 247.7 117.2 320 117.2"/>
    <path d="M0 190.75c77.4 0 242.6 125.6 320 125.6s242.6-125.6 320-125.6 242.6 125.6 320 125.6 242.6-125.6 320-125.6 242.6 125.6 320 125.6"/>
    <path d="M0 234.55c82.6 0 237.4 133.9 320 133.9s237.4-133.9 320-133.9 237.4 133.9 320 133.9 237.4-133.9 320-133.9 237.4 133.9 320 133.9"/>
    <path d="M0 278.45c87.7 0 232.2 142.3 320 142.3s232.3-142.3 320-142.3 232.2 142.3 320 142.3 232.3-142.3 320-142.3 232.3 142.3 320 142.3"/>
    <path d="M0 322.25c92.9 0 227.1 150.7 320 150.7s227.1-150.7 320-150.7 227.1 150.7 320 150.7 227.1-150.7 320-150.7 227.1 150.7 320 150.7"/>
    <path d="M0 366.15c98.1 0 221.9 159 320 159s221.9-159 320-159 221.9 159.1 320 159.1 221.9-159 320-159 221.9 159 320 159"/>
    <path d="M0 409.95c103.2 0 216.8 167.4 320 167.4s216.8-167.4 320-167.4 216.8 167.5 320 167.5 216.8-167.4 320-167.4 216.8 167.4 320 167.4"/>
    <path d="M0 453.85c108.4 0 211.6 175.8 320 175.8s211.6-175.8 320-175.8 211.6 175.8 320 175.8 211.6-175.8 320-175.8 211.6 175.8 320 175.8"/>
    <path d="M0 497.65c113.5 0 206.4 184.2 320 184.2s206.5-184.2 320-184.2 206.4 184.2 320 184.2 206.5-184.2 320-184.2 206.5 184.2 320 184.2"/>
    <path d="M0 541.55c118.7 0 201.3 192.5 320 192.5s201.3-192.5 320-192.5 201.3 192.5 320 192.5 201.3-192.5 320-192.5 201.3 192.5 320 192.5"/>
    <path d="M0 585.35c123.9 0 196.1 200.9 320 200.9s196.1-200.9 320-200.9 196.1 200.9 320 200.9 196.1-200.9 320-200.9 196.1 200.9 320 200.9"/>
    <path d="M0 629.25c129 0 191 209.3 320 209.3s191-209.3 320-209.3 191 209.3 320 209.3 191-209.3 320-209.3 191 209.3 320 209.3"/>
    <path d="M0 673.05c134.2 0 185.8 217.6 320 217.6s185.8-217.6 320-217.6 185.8 217.6 320 217.6 185.8-217.6 320-217.6 185.8 217.6 320 217.6"/>
    <path d="M0 716.95c139.4 0 180.6 226 320 226s180.6-226 320-226 180.6 226 320 226 180.6-226 320-226 180.6 226 320 226"/>
    <path d="M0 760.75c144.5 0 175.5 234.4 320 234.4s175.5-234.4 320-234.4 175.5 234.4 320 234.4 175.5-234.4 320-234.4 175.5 234.4 320 234.4"/>
    <path d="M0 804.65c149.7 0 170.3 242.8 320 242.8s170.3-242.8 320-242.8 170.3 242.8 320 242.8 170.3-242.8 320-242.8 170.3 242.8 320 242.8"/>
    <path d="M0 848.45c154.8 0 165.2 251.1 320 251.1s165.2-251.1 320-251.1 165.2 251.1 320 251.1 165.2-251.1 320-251.1 165.2 251.1 320 251.1"/>
    <path d="M0 892.35c160 0 160 259.5 320 259.5s160-259.5 320-259.5 160 259.5 320 259.5 160-259.5 320-259.5 160 259.5 320 259.5"/>
  </g>
</svg>