<svg xmlns="http://www.w3.org/2000/svg" xml:space="preserve" id="Layer_1" x="0" y="0" style="enable-background:new 0 0 115.1 127.4" version="1.1" viewBox="0 0 115.1 127.4"><style>.st0{fill:#fff}</style><path d="M33.8 77h79.4v7.6H33.8V77z" class="st0"/><path d="M113.2 86.5H33.8c-1 0-1.8-.8-1.8-1.8V77c0-1 .8-1.8 1.8-1.8h79.4c1 0 1.8.8 1.8 1.8v7.6c.1 1-.8 1.9-1.8 1.9zm-77.6-3.7h75.7v-3.9H35.6v3.9z"/><path d="M33.8 26.7h79.4v7.6H33.8v-7.6z" class="st0"/><path d="M113.2 36.1H33.8c-1 0-1.8-.8-1.8-1.8v-7.6c0-1 .8-1.8 1.8-1.8h79.4c1 0 1.8.8 1.8 1.8v7.6c.1 1-.8 1.8-1.8 1.8zm-77.6-3.7h75.7v-3.9H35.6v3.9z"/><path d="M35.7 77c-.5 0-.9-.4-.9-.9V34.5c0-.5.4-.9.9-.9s.9.4.9.9v41.6c0 .5-.4.9-.9.9zm5 0c-.5 0-.9-.4-.9-.9V34.5c0-.5.4-.9.9-.9s.9.4.9.9v41.6c0 .5-.4.9-.9.9zm5.1 0c-.5 0-.9-.4-.9-.9V34.5c0-.5.4-.9.9-.9s.9.4.9.9v41.6c-.1.5-.5.9-.9.9zm5 0c-.5 0-.9-.4-.9-.9V34.5c0-.5.4-.9.9-.9s.9.4.9.9v41.6c0 .5-.4.9-.9.9zm5 0c-.5 0-.9-.4-.9-.9V34.5c0-.5.4-.9.9-.9s.9.4.9.9v41.6c0 .5-.4.9-.9.9zm5.1 0c-.5 0-.9-.4-.9-.9V34.5c0-.5.4-.9.9-.9s.9.4.9.9v41.6c-.1.5-.5.9-.9.9zm5 0c-.5 0-.9-.4-.9-.9V34.5c0-.5.4-.9.9-.9s.9.4.9.9v41.6c0 .5-.4.9-.9.9zm5 0c-.5 0-.9-.4-.9-.9V34.5c0-.5.4-.9.9-.9s.9.4.9.9v41.6c0 .5-.4.9-.9.9zm5.1 0c-.5 0-.9-.4-.9-.9V34.5c0-.5.4-.9.9-.9s.9.4.9.9v41.6c-.1.5-.4.9-.9.9zm5 0c-.5 0-.9-.4-.9-.9V34.5c0-.5.4-.9.9-.9s.9.4.9.9v41.6c0 .5-.4.9-.9.9zm5.1 0c-.5 0-.9-.4-.9-.9V34.5c0-.5.4-.9.9-.9s.9.4.9.9v41.6c-.1.5-.5.9-.9.9zm5 0c-.5 0-.9-.4-.9-.9V34.5c0-.5.4-.9.9-.9s.9.4.9.9v41.6c0 .5-.4.9-.9.9zm5 0c-.5 0-.9-.4-.9-.9V34.5c0-.5.4-.9.9-.9s.9.4.9.9v41.6c0 .5-.4.9-.9.9zm5.1 0c-.5 0-.9-.4-.9-.9V34.5c0-.5.4-.9.9-.9s.9.4.9.9v41.6c-.1.5-.5.9-.9.9zm5 0c-.5 0-.9-.4-.9-.9V34.5c0-.5.4-.9.9-.9s.9.4.9.9v41.6c0 .5-.4.9-.9.9zm5 0c-.5 0-.9-.4-.9-.9V34.5c0-.5.4-.9.9-.9s.9.4.9.9v41.6c0 .5-.4.9-.9.9z"/><path d="M55.4 19.3V6.5H39.9v12.8L6.6 43.2c-3 2.3-4.8 5.8-4.8 9.6v67.1c0 3.1 2.5 5.6 5.6 5.6H60c3.1 0 5.6-2.5 5.6-5.6V50.6c0-2.5-.4-5-1.3-7.3l-8.9-24z" class="st0"/><path d="M.9 72v47.5c0 3 2.1 5.5 4.7 5.5h55c2.6 0 4.7-2.5 4.7-5.5V72H.9z" style="fill:#08663a"/><path d="M.9 53.3h64.4V72H.9V53.3z" style="fill:#20b466"/><path d="M60 127.4H7.5c-4.1 0-7.5-3.4-7.5-7.5V52.8c0-4.3 2.1-8.5 5.5-11.1L38 18.3V6.5c0-1 .8-1.8 1.8-1.8h15.5c1 0 1.8.8 1.8 1.8v12.4L66 42.6c1 2.6 1.4 5.3 1.4 8v69.3c.1 4.1-3.2 7.5-7.4 7.5zM41.7 8.3v10.9c0 .6-.3 1.1-.8 1.5l-33.2 24c-2.5 1.9-4 4.9-4 8.1v67.1c0 2.1 1.7 3.8 3.8 3.8H60c2.1 0 3.8-1.7 3.8-3.8V50.6c0-2.3-.4-4.6-1.2-6.7l-9-24c-.1-.2-.1-.4-.1-.6v-11H41.7z"/><path d="M54.4 50.3H13.1c-.5 0-.9-.4-.9-.9s.4-.9.9-.9h41.4c.5 0 .9.4.9.9s-.5.9-1 .9zm0 64.9H13.1c-.5 0-.9-.4-.9-.9V60.4c0-.5.4-.9.9-.9h41.4c.5 0 .9.4.9.9v53.9c-.1.5-.5.9-1 .9zm-40.5-1.8h39.6V61.3H13.9v52.1z"/><path d="M56.3.9H38.9c-.6 0-1.1.5-1.1 1.1v9.5h19.7V2c0-.6-.5-1.1-1.2-1.1" class="st0"/><path d="M57.5 12.4H37.8c-.5 0-.9-.4-.9-.9V2c0-1.1.9-2 2-2h17.4c1.1 0 2 .9 2 2v9.5c.1.5-.3.9-.8.9zm-18.9-1.8h18V2c0-.2-.1-.3-.3-.3H38.9c-.2 0-.3.1-.3.3v8.6z"/><path d="M37.8 11.3h19.7v3.4H37.8v-3.4z" class="st0"/><path d="M57.5 15.5H37.8c-.5 0-.9-.4-.9-.9v-3.4c0-.5.4-.9.9-.9h19.7c.5 0 .9.4.9.9v3.4c0 .5-.4.9-.9.9zm-18.9-1.7h18v-1.7h-18v1.7z"/></svg>